:version 1.10
:name ASF
:units
  mass 1
  length 1
  angle deg
:documentation
  ASF file generated by Kaydara
:root
  axis xyz
  order  tx ty tz rx ry rz
  position 0 0 0
  orientation 0 0 0
:bonedata
  begin
    id 1
    name LeftUpLegDummy
    direction 1 -2.30186e-007 -8.31532e-007
    length 2.93387
    axis 0 0 0 xyz
  end
  begin
    id 2
    name LeftUpLeg
    direction -1.82929e-007 -1 -1.48925e-009
    length 17.3336
    axis -3.48766 0.00143442 -0.000521554 xyz
    dof rx ry rz
  end
  begin
    id 3
    name LeftLeg
    direction -1.82929e-007 -1 -5.23717e-011
    length 14.9995
    axis 3.68178 -0.00654042 -0.000282425 xyz
    dof rx ry rz
  end
  begin
    id 4
    name LeftFoot
    direction 8.31532e-007 -4.54534e-011 1
    length 6.74421
    axis 1.87234e-006 4.66016e-005 -5.96866e-006 xyz
    dof rx ry rz
  end
  begin
    id 5
    name LeftToes
    direction 0.00818058 -0.00485161 0.999955
    length 3.85048
    axis 1.06247e-005 4.65869e-005 -5.96999e-006 xyz
    dof rx ry rz
  end
  begin
    id 6
    name SpineDummy
    direction -5.8607e-008 0.943407 -0.331637
    length 5.93572
    axis 0 0 0 xyz
  end
  begin
    id 7
    name Spine
    direction -1.04988e-007 0.999988 0.00495137
    length 10.1015
    axis -0.001389 0.000121417 6.61666e-006 xyz
    dof rx ry rz
  end
  begin
    id 8
    name Spine1
    direction 0 0 0
    length 0
    axis -0.001389 0.00012144 6.56766e-006 xyz
    dof rx ry rz
  end
  begin
    id 9
    name RightShoulderDummy
    direction -0.98348 0.17941 -0.0240696
    length 3.59882
    axis -0.001389 0.00012144 6.56766e-006 xyz
  end
  begin
    id 10
    name RightShoulder
    direction -0.978693 0.204882 0.0135597
    length 2.70001
    axis 0.215806 0.000203631 -0.00679732 xyz
    dof rx ry rz
  end
  begin
    id 11
    name RightArm
    direction -1 3.85509e-006 8.31394e-007
    length 10.2459
    axis -23.2009 -0.134239 -0.964098 xyz
    dof rx ry rz
  end
  begin
    id 12
    name RightForeArm
    direction -1 3.85569e-006 8.3129e-007
    length 8.16799
    axis -9.92322 0.0658061 0.17887 xyz
    dof rx ry rz
  end
  begin
    id 13
    name RightHand
    direction -0.992843 -0.0414604 0.112003
    length 5.28593
    axis -0.00960638 0.00330669 -0.185225 xyz
    dof rx ry rz
  end
  begin
    id 14
    name LeftShoulder1Dummy
    direction 0.983523 0.179172 -0.0240748
    length 3.59866
    axis -0.001389 0.00012144 6.56766e-006 xyz
  end
  begin
    id 15
    name LeftShoulder1
    direction 0.978627 0.205195 0.0135605
    length 2.70019
    axis -0.001389 0.00012144 6.57583e-006 xyz
    dof rx ry rz
  end
  begin
    id 16
    name LeftArm
    direction 1 3.51895e-006 -8.60188e-007
    length 10.2459
    axis -23.1894 0.134785 0.967513 xyz
    dof rx ry rz
  end
  begin
    id 17
    name LeftForeArm
    direction 1 3.51921e-006 -7.32029e-007
    length 8.16799
    axis -9.91835 -0.0656957 -0.177789 xyz
    dof rx ry rz
  end
  begin
    id 18
    name LeftHand
    direction 0.992938 -0.0411636 0.11126
    length 5.32135
    axis -0.00960237 -0.00340661 0.185177 xyz
    dof rx ry rz
  end
  begin
    id 19
    name HEadDummy
    direction 1.01974e-006 0.999861 -0.016675
    length 2.99946
    axis -0.001389 0.00012144 6.56766e-006 xyz
  end
  begin
    id 20
    name HEad
    direction -0.0222689 0.980941 0.193023
    length 5.12695
    axis -0.001389 0.00012144 6.56766e-006 xyz
    dof rx ry rz
  end
  begin
    id 21
    name RightUpLegDummy
    direction -1 2.30186e-007 8.31532e-007
    length 2.93387
    axis 0 0 0 xyz
  end
  begin
    id 22
    name RightUpLeg
    direction -1.82966e-007 -1 1.56832e-007
    length 17.3336
    axis -3.4909 -0.000906625 0.00028951 xyz
    dof rx ry rz
  end
  begin
    id 23
    name RightLeg
    direction -1.82786e-007 -1 -1.80317e-007
    length 14.9995
    axis 3.68513 0.0193739 -0.131021 xyz
    dof rx ry rz
  end
  begin
    id 24
    name RightFoot
    direction 8.31721e-007 -4.63324e-011 1
    length 6.74421
    axis 4.81691e-005 -0.120479 -0.188785 xyz
    dof rx ry rz
  end
  begin
    id 25
    name RightToes
    direction 0.00124746 -0.014064 0.9999
    length 3.85082
    axis 0.000481921 0.542163 -0.142575 xyz
    dof rx ry rz
  end
:hierarchy
  begin
    root LeftUpLegDummy SpineDummy RightUpLegDummy
    LeftUpLegDummy LeftUpLeg
    LeftUpLeg LeftLeg
    LeftLeg LeftFoot
    LeftFoot LeftToes
    SpineDummy Spine
    Spine Spine1
    Spine1 RightShoulderDummy LeftShoulder1Dummy HEadDummy
    RightShoulderDummy RightShoulder
    RightShoulder RightArm
    RightArm RightForeArm
    RightForeArm RightHand
    LeftShoulder1Dummy LeftShoulder1
    LeftShoulder1 LeftArm
    LeftArm LeftForeArm
    LeftForeArm LeftHand
    HEadDummy HEad
    RightUpLegDummy RightUpLeg
    RightUpLeg RightLeg
    RightLeg RightFoot
    RightFoot RightToes
  end

:SAMPLES-PER-SECOND 30
:FULLY-SPECIFIED
:DEGREES
139
root  -7.72942 34.3138 8.10244 17.2669 87.1994 9.12789
LeftUpLeg  -12.2205 -2.77566 6.30866
LeftLeg  12.4505 -11.3537 -1.74075
LeftFoot  2.51278 0.017284 -0.518405
LeftToes  -22.9384 6.91067e-007 1.07128e-007
Spine  3.10442 2.59459 1.15661
Spine1  6.22492 5.16101 2.37439
RightShoulder  0.0311876 7.74611 4.38283
RightArm  -39.1759 -16.8094 67.0068
RightForeArm  19.2964 24.0572 4.51031
RightHand  0.435279 -6.49459 -7.36547
LeftShoulder1  -0.00137423 1.51978 -10.0205
LeftArm  -18.4421 20.3234 -70.4382
LeftForeArm  25.4 -22.5329 -4.18817
LeftHand  0.0896198 5.35577 1.54397
HEad  -8.89494 55.705 -17.2986
RightUpLeg  -9.33805 -14.8785 0.957743
RightLeg  7.88578 -2.663 -0.193957
RightFoot  1.23749 0.00531168 -0.0601403
RightToes  -26.7611 -0.122265 -0.228837
140
root  -7.73181 34.3165 8.32173 34.1513 88.5885 26.014
LeftUpLeg  -12.5891 -1.16853 5.848
LeftLeg  12.7216 -10.1687 -1.61036
LeftFoot  2.89935 0.0189494 -0.533828
LeftToes  -22.8459 6.91067e-007 1.07128e-007
Spine  3.08502 2.59954 1.1547
Spine1  6.1876 5.16769 2.37822
RightShoulder  0.0321508 7.76593 4.53619
RightArm  -39.3309 -17.1092 67.2066
RightForeArm  19.7113 23.0569 4.2998
RightHand  0.434543 -6.46682 -7.31177
LeftShoulder1  -0.00192194 1.63088 -10.0558
LeftArm  -17.9759 20.3243 -70.9901
LeftForeArm  25.2963 -22.9753 -4.28013
LeftHand  0.0853421 5.31814 1.46555
HEad  -9.05798 55.4094 -17.3317
RightUpLeg  -9.14874 -15.2264 1.21792
RightLeg  7.7605 -3.77289 -0.266917
RightFoot  0.963019 0.00455472 -0.0658177
RightToes  -26.164 -0.11844 -0.224441
141
root  -7.73743 34.3183 8.51602 97.3594 89.226 89.2296
LeftUpLeg  -12.9282 0.323701 5.38303
LeftLeg  12.9517 -8.98497 -1.46167
LeftFoot  3.21781 0.0192386 -0.522142
LeftToes  -22.5433 6.91067e-007 1.07128e-007
Spine  3.05343 2.62878 1.1332
Spine1  6.12557 5.22366 2.34454
RightShoulder  0.0329429 7.81754 4.62953
RightArm  -39.6265 -17.4572 67.5498
RightForeArm  20.0735 22.0755 4.0964
RightHand  0.429678 -6.56599 -7.18463
LeftShoulder1  -0.00238197 1.74109 -10.0732
LeftArm  -17.5394 20.2567 -71.3746
LeftForeArm  25.047 -23.4827 -4.3864
LeftHand  0.0840016 5.31998 1.46132
HEad  -9.32948 55.1369 -17.2158
RightUpLeg  -8.99917 -15.369 1.44773
RightLeg  7.65409 -4.8663 -0.335338
RightFoot  0.730983 0.00378469 -0.0643449
RightToes  -25.5961 -0.114801 -0.220223
142
root  -7.73124 34.3203 8.70187 148.249 88.5905 140.12
LeftUpLeg  -13.1545 1.58373 4.98609
LeftLeg  13.0114 -7.77657 -1.27496
LeftFoot  3.54473 0.0189383 -0.496499
LeftToes  -22.1288 6.91067e-007 1.07128e-007
Spine  3.0132 2.64927 1.09784
Spine1  6.04542 5.26265 2.28353
RightShoulder  0.0335928 7.88375 4.71306
RightArm  -39.8449 -17.8326 67.9552
RightForeArm  20.3918 21.1933 3.91603
RightHand  0.424214 -6.59614 -7.00072
LeftShoulder1  -0.00275881 1.80469 -10.1147
LeftArm  -17.1344 20.1578 -71.5045
LeftForeArm  24.8469 -23.9998 -4.49556
LeftHand  0.083396 5.3169 1.40404
HEad  -9.36004 54.8228 -17.0573
RightUpLeg  -8.85852 -15.5385 1.68973
RightLeg  7.53929 -5.78262 -0.386825
RightFoot  0.507129 0.00274104 -0.0530661
RightToes  -24.9594 -0.110796 -0.215838
143
root  -7.72397 34.325 8.87321 160.464 87.7145 152.343
LeftUpLeg  -13.3056 2.64116 4.52129
LeftLeg  12.9025 -6.25448 -1.0147
LeftFoot  4.00153 0.0175039 -0.449364
LeftToes  -21.8565 6.91067e-007 1.07128e-007
Spine  2.97823 2.63224 1.05155
Spine1  5.97391 5.22754 2.19884
RightShoulder  0.0341013 7.95883 4.76294
RightArm  -40.0458 -18.1167 68.4203
RightForeArm  20.9466 20.3812 3.75197
RightHand  0.422524 -6.59305 -6.96199
LeftShoulder1  -0.0030569 1.83136 -10.1716
LeftArm  -16.6617 19.9559 -71.4325
LeftForeArm  24.6758 -24.3214 -4.56392
LeftHand  0.086145 5.20142 1.47615
HEad  -9.42015 54.5873 -16.9945
RightUpLeg  -8.67932 -15.5397 1.86693
RightLeg  7.32607 -6.73567 -0.4253
RightFoot  0.370738 0.00217885 -0.0450938
RightToes  -24.4852 -0.108228 -0.21187
144
root  -7.71544 34.3303 9.02501 164.58 86.887 156.481
LeftUpLeg  -13.461 3.78266 3.97248
LeftLeg  12.8541 -4.68501 -0.757081
LeftFoot  4.3597 0.0139363 -0.366138
LeftToes  -21.3566 6.91067e-007 1.07128e-007
Spine  2.95637 2.58147 0.993733
Spine1  5.9271 5.12577 2.08886
RightShoulder  0.034515 7.95468 4.76162
RightArm  -40.3283 -18.3418 68.9744
RightForeArm  21.4196 19.8865 3.6529
RightHand  0.41833 -6.61797 -6.84908
LeftShoulder1  -0.0032807 1.81723 -10.1348
LeftArm  -16.2966 19.6307 -71.2989
LeftForeArm  24.707 -24.4649 -4.59451
LeftHand  0.0884773 5.12155 1.4958
HEad  -9.71627 54.3851 -17.1067
RightUpLeg  -8.53079 -15.6429 1.98438
RightLeg  7.18012 -7.51777 -0.455295
RightFoot  0.239388 0.00149641 -0.0324746
RightToes  -24.1499 -0.10578 -0.209322
145
root  -7.70865 34.3329 9.16045 166.35 86.188 158.276
LeftUpLeg  -13.5624 4.8262 3.43557
LeftLeg  12.7293 -3.11554 -0.497318
LeftFoot  4.69797 0.0107596 -0.262307
LeftToes  -20.8474 6.91067e-007 1.07128e-007
Spine  2.92991 2.52071 0.942476
Spine1  5.87079 5.00409 1.99043
RightShoulder  0.0348376 7.92542 4.79383
RightArm  -40.4411 -18.6477 69.4336
RightForeArm  21.6563 19.7987 3.63538
RightHand  0.412809 -6.63153 -6.73951
LeftShoulder1  -0.00343468 1.8309 -10.1074
LeftArm  -16.065 19.2219 -71.0904
LeftForeArm  24.8366 -24.4925 -4.60037
LeftHand  0.0901672 5.10932 1.52958
HEad  -9.85672 54.2276 -17.2137
RightUpLeg  -8.43527 -15.5223 2.08245
RightLeg  7.117 -8.33597 -0.495345
RightFoot  0.0581884 0.000196267 -0.00887387
RightToes  -23.5721 -0.102254 -0.205726
146
root  -7.70297 34.335 9.28213 166.995 85.6522 158.935
LeftUpLeg  -13.6439 6.02503 2.90173
LeftLeg  12.5703 -1.70002 -0.267284
LeftFoot  4.99791 0.0069448 -0.152722
LeftToes  -20.3008 6.91067e-007 1.07128e-007
Spine  2.8999 2.46329 0.894125
Spine1  5.80681 4.88946 1.89711
RightShoulder  0.0350496 7.90182 4.83071
RightArm  -40.3282 -18.9867 69.7958
RightForeArm  21.6979 20.0038 3.67632
RightHand  0.405713 -6.69879 -6.66674
LeftShoulder1  -0.00352329 1.8033 -10.1065
LeftArm  -16.0019 18.7922 -70.803
LeftForeArm  24.8262 -24.387 -4.57785
LeftHand  0.093155 5.06775 1.68331
HEad  -9.87966 54.1519 -17.274
RightUpLeg  -8.36816 -15.343 2.16453
RightLeg  7.0688 -9.04745 -0.529669
RightFoot  -0.0815733 -0.000259458 0.0131979
RightToes  -23.1987 -0.099843 -0.20203
147
root  -7.68635 34.3364 9.38665 167.416 85.1621 159.353
LeftUpLeg  -13.6966 6.94478 2.40395
LeftLeg  12.3694 -0.223002 -0.0355089
LeftFoot  5.25211 0.00103852 -0.0226518
LeftToes  -19.7026 6.91067e-007 1.07128e-007
Spine  2.85137 2.37296 0.845396
Spine1  5.70472 4.70982 1.79962
RightShoulder  0.0352067 7.79929 4.89091
RightArm  -40.2166 -19.2569 70.0685
RightForeArm  21.8026 20.2111 3.71781
RightHand  0.399668 -6.63927 -6.56932
LeftShoulder1  -0.00355099 1.83965 -10.0933
LeftArm  -16.033 18.3334 -70.476
LeftForeArm  24.9308 -24.1532 -4.52808
LeftHand  0.0947215 5.07103 1.76644
HEad  -9.72703 54.0364 -17.1743
RightUpLeg  -8.29487 -15.3283 2.23127
RightLeg  7.00244 -9.55743 -0.548181
RightFoot  -0.218889 -0.00125019 0.0375784
RightToes  -22.8171 -0.097905 -0.199078
148
root  -7.66807 34.3362 9.47654 167.403 84.7774 159.329
LeftUpLeg  -13.6619 7.45399 1.99981
LeftLeg  12.0513 1.16482 0.169964
LeftFoot  5.50711 -0.00621614 0.111598
LeftToes  -19.3485 6.91067e-007 1.07128e-007
Spine  2.79633 2.29288 0.794487
Spine1  5.5893 4.55085 1.69784
RightShoulder  0.0352693 7.69555 4.96127
RightArm  -40.1483 -19.4975 70.2455
RightForeArm  21.8763 20.422 3.76015
RightHand  0.396462 -6.56945 -6.52313
LeftShoulder1  -0.00352224 1.89352 -10.0941
LeftArm  -16.1382 17.8594 -70.1202
LeftForeArm  25.1433 -23.8918 -4.47262
LeftHand  0.0974107 4.98749 1.83888
HEad  -9.39454 53.727 -16.9444
RightUpLeg  -8.24578 -15.2207 2.26669
RightLeg  6.96899 -10.0309 -0.569197
RightFoot  -0.361449 -0.00253497 0.0651941
RightToes  -22.517 -0.09593 -0.196499
